<?xml version="1.0" encoding="UTF-8"?>
<svg id="Layer_2" data-name="Layer 2" xmlns="http://www.w3.org/2000/svg" viewBox="0 0 239.85 318.49">
  <defs>
    <style>
      .cls-1 {
        fill: #fff;
      }

      .cls-2 {
        fill: #0069b2;
      }

      .cls-3 {
        fill: #414042;
      }
    </style>
  </defs>
  <g id="Layer_1-2" data-name="Layer 1">
    <g>
      <g>
        <rect class="cls-2" width="239.85" height="239.84"/>
        <polygon class="cls-1" points="111.93 119.92 111.93 135.91 87.94 135.91 87.94 119.92 79.95 119.92 79.95 159.9 87.94 159.9 87.94 143.91 111.93 143.91 111.93 159.9 119.92 159.9 119.92 119.92 111.93 119.92"/>
        <polygon class="cls-1" points="31.98 119.92 31.98 159.9 39.97 159.9 39.97 127.92 47.97 127.92 47.97 159.9 55.96 159.9 55.96 127.92 63.96 127.92 63.96 159.9 71.95 159.9 71.95 119.92 31.98 119.92"/>
        <polygon class="cls-1" points="39.97 175.89 71.95 175.89 71.95 167.89 31.98 167.89 31.98 207.87 71.95 207.87 71.95 183.88 47.97 183.88 47.97 191.88 63.96 191.88 63.96 199.87 39.97 199.87 39.97 175.89"/>
        <rect class="cls-1" x="79.95" y="199.87" width="7.99" height="7.99" transform="translate(167.89 407.74) rotate(180)"/>
      </g>
      <g>
        <g>
          <path class="cls-3" d="m0,297.49c0-.16.08-.24.24-.24h1.58c.2,0,.33.08.39.24l4.95,11.17h.07l4.85-11.17c.07-.16.2-.24.39-.24h1.58c.16,0,.24.08.24.24v16.1c0,.16-.08.24-.24.24h-1.54c-.16,0-.24-.08-.24-.24v-11.54h-.07l-4.12,9.12c-.08.2-.23.29-.44.29h-.98c-.23,0-.38-.1-.46-.29l-4.12-9.12h-.07v11.54c0,.16-.08.24-.24.24H.24c-.16,0-.24-.08-.24-.24v-16.1Z"/>
          <path class="cls-3" d="m25.44,313.83c-.16,0-.24-.08-.24-.24v-1.02h-.03c-.28.44-.7.8-1.27,1.1-.57.29-1.3.44-2.19.44-.55,0-1.07-.07-1.55-.22-.48-.15-.89-.36-1.24-.66-.35-.29-.63-.66-.83-1.1-.2-.44-.3-.95-.3-1.54,0-1.24.4-2.15,1.21-2.73.8-.59,1.92-.88,3.35-.88h2.66c.1,0,.15-.05.15-.15v-.85c0-.81-.2-1.4-.59-1.76-.39-.36-1.13-.54-2.22-.54-.67,0-1.22.08-1.66.23-.44.15-.83.35-1.17.6-.15.11-.26.11-.34-.02l-.66-1.12c-.06-.13-.05-.24.05-.34.44-.34.99-.62,1.66-.83.67-.21,1.44-.32,2.32-.32,1.66,0,2.84.3,3.54.91.7.61,1.05,1.63,1.05,3.06v7.73c0,.16-.08.24-.24.24h-1.44Zm-3.24-1.49c.93,0,1.65-.2,2.17-.6.52-.4.78-.96.78-1.69v-1.29c0-.1-.05-.15-.15-.15h-2.34c-1.02,0-1.76.15-2.22.45-.45.3-.68.79-.68,1.45,0,.6.21,1.06.63,1.37s1.02.46,1.81.46Z"/>
          <path class="cls-3" d="m31.26,313.83c-.16,0-.24-.08-.24-.24v-11.2c0-.16.08-.24.24-.24h1.56c.16,0,.24.08.24.24v1.2h.02c.26-.5.65-.91,1.16-1.23.51-.32,1.16-.48,1.94-.48.47,0,.91.08,1.33.23.41.15.77.37,1.06.65.11.11.13.23.05.34l-.9,1.2c-.1.13-.21.15-.34.05-.28-.18-.56-.32-.85-.41-.29-.1-.61-.15-.95-.15-.89,0-1.54.31-1.93.94-.39.63-.58,1.45-.58,2.48v6.39c0,.16-.08.24-.24.24h-1.56Z"/>
          <path class="cls-3" d="m48.8,313.83c-.16,0-.29-.08-.39-.24l-3.32-5.44-2.02,2.36v3.07c0,.16-.08.24-.24.24h-1.56c-.16,0-.24-.08-.24-.24v-16.1c0-.16.08-.24.24-.24h1.56c.16,0,.24.08.24.24v10.32l4.61-5.44c.13-.15.28-.22.44-.22h1.81c.08,0,.13.02.15.07.02.05,0,.1-.05.17l-3.58,4.17,4.32,7.03s.04.1.01.16c-.02.06-.08.09-.16.09h-1.81Z"/>
          <path class="cls-3" d="m57.85,314.1c-1.19,0-2.18-.27-2.99-.82-.8-.55-1.37-1.33-1.69-2.36-.13-.37-.23-.79-.29-1.24-.06-.45-.1-1.02-.1-1.71s.03-1.26.09-1.72c.06-.46.15-.87.28-1.23.33-1.02.89-1.8,1.69-2.34.8-.54,1.77-.8,2.89-.8s2.09.27,2.89.82c.8.55,1.37,1.32,1.69,2.33.07.2.12.4.16.6.04.2.08.44.11.7.03.26.06.56.07.89.02.33.02.72.02,1.16,0,.16-.09.25-.27.25h-7.39c-.1,0-.15.05-.15.15,0,.33.02.59.05.8.03.21.08.41.15.61.23.68.59,1.19,1.1,1.52.5.33,1.12.5,1.85.5s1.29-.12,1.78-.37c.49-.24.89-.55,1.22-.93.13-.13.25-.15.37-.05l1,.9c.11.1.12.21.02.34-.47.59-1.09,1.06-1.87,1.44-.77.37-1.67.56-2.69.56Zm2.59-7.12c.1,0,.15-.05.15-.15,0-.54-.06-.97-.17-1.32-.2-.59-.53-1.04-.99-1.35-.46-.32-1.03-.48-1.69-.48s-1.23.16-1.69.48c-.46.32-.79.77-.99,1.35-.11.34-.17.78-.17,1.32,0,.1.05.15.15.15h5.41Z"/>
          <path class="cls-3" d="m69.36,313.96c-1.14,0-1.95-.26-2.43-.79-.48-.53-.72-1.37-.72-2.52v-6.68c0-.1-.05-.15-.15-.15h-.98c-.16,0-.24-.08-.24-.24v-1.17c0-.16.08-.24.24-.24h.98c.1,0,.15-.05.15-.15v-3.29c0-.16.08-.24.24-.24h1.56c.16,0,.24.08.24.24v3.29c0,.1.05.15.15.15h1.85c.16,0,.24.08.24.24v1.17c0,.16-.08.24-.24.24h-1.85c-.1,0-.15.05-.15.15v6.61c0,.59.12.98.35,1.18.24.2.61.3,1.13.3h.51c.16,0,.24.08.24.25v1.41c0,.16-.08.24-.24.24h-.9Z"/>
          <path class="cls-3" d="m73.87,299.52c-.16,0-.24-.08-.24-.24v-1.78c0-.16.08-.24.24-.24h1.66c.16,0,.24.08.24.24v1.78c0,.16-.08.24-.24.24h-1.66Zm.05,14.32c-.16,0-.24-.08-.24-.24v-11.2c0-.16.08-.24.24-.24h1.56c.16,0,.24.08.24.24v11.2c0,.16-.08.24-.24.24h-1.56Z"/>
          <path class="cls-3" d="m87.31,313.83c-.16,0-.24-.08-.24-.24v-6.83c0-.94-.22-1.67-.65-2.19-.43-.52-1.08-.78-1.96-.78-.8,0-1.44.26-1.94.77-.5.51-.74,1.21-.74,2.08v6.95c0,.16-.08.24-.24.24h-1.56c-.16,0-.24-.08-.24-.24v-11.2c0-.16.08-.24.24-.24h1.56c.16,0,.24.08.24.24v1.07h.02c.28-.45.69-.83,1.24-1.13.55-.3,1.23-.45,2.02-.45,1.27,0,2.26.4,2.98,1.2.72.8,1.07,1.86,1.07,3.2v7.32c0,.16-.08.24-.24.24h-1.56Z"/>
          <path class="cls-3" d="m96.79,318.49c-.83,0-1.61-.16-2.35-.48-.74-.32-1.31-.74-1.69-1.26-.1-.11-.09-.23.02-.34l1-1c.11-.11.23-.11.37,0,.41.37.83.66,1.26.86.43.2.93.3,1.5.3.98,0,1.71-.25,2.21-.77.5-.51.74-1.31.74-2.38v-1.36h-.02c-.28.49-.67.88-1.18,1.17-.51.29-1.2.44-2.06.44-.99,0-1.82-.24-2.49-.72-.67-.48-1.15-1.18-1.44-2.11-.15-.44-.25-.89-.3-1.36-.06-.46-.09-1.04-.09-1.72s.03-1.26.09-1.72c.06-.46.16-.91.3-1.36.29-.93.77-1.63,1.44-2.11.67-.48,1.5-.72,2.49-.72.86,0,1.55.15,2.06.44.51.29.91.68,1.18,1.17h.02v-1.1c0-.16.08-.24.24-.24h1.56c.16,0,.24.08.24.24v10.93c0,1.67-.44,2.96-1.31,3.84-.87.89-2.13,1.33-3.79,1.33Zm.29-6.68c1.25,0,2.08-.59,2.49-1.76.1-.29.17-.62.21-.98s.06-.79.06-1.29-.02-.93-.06-1.28-.11-.68-.21-.99c-.41-1.15-1.24-1.73-2.49-1.73s-2.06.58-2.46,1.73c-.1.31-.17.65-.22,1.01-.05.37-.07.79-.07,1.26,0,.93.1,1.68.29,2.27.41,1.17,1.23,1.76,2.46,1.76Z"/>
          <path class="cls-3" d="m111.79,297.49c0-.16.08-.24.24-.24h1.68c.16,0,.24.08.24.24v6.8c0,.1.05.15.15.15h7.19c.1,0,.15-.05.15-.15v-6.8c0-.16.08-.24.24-.24h1.68c.16,0,.24.08.24.24v16.1c0,.16-.08.24-.24.24h-1.68c-.16,0-.24-.08-.24-.24v-6.98c0-.1-.05-.15-.15-.15h-7.19c-.1,0-.15.05-.15.15v6.98c0,.16-.08.24-.24.24h-1.68c-.16,0-.24-.08-.24-.24v-16.1Z"/>
          <path class="cls-3" d="m131.96,314.1c-1.14,0-2.11-.28-2.92-.83-.8-.55-1.37-1.32-1.69-2.31-.13-.41-.23-.83-.29-1.28-.06-.45-.1-1.01-.1-1.7s.03-1.24.1-1.68c.07-.44.16-.86.29-1.27.33-1.01.89-1.78,1.69-2.33.8-.54,1.78-.82,2.92-.82s2.11.27,2.91.82c.81.55,1.37,1.32,1.69,2.33.13.41.23.83.3,1.27.06.44.1,1,.1,1.68s-.03,1.25-.1,1.7c-.07.45-.16.87-.3,1.28-.32.99-.89,1.76-1.69,2.31-.8.55-1.78.83-2.91.83Zm0-1.9c.65,0,1.2-.16,1.66-.48.45-.32.78-.77.98-1.35.1-.33.17-.66.2-1.01.04-.35.06-.81.06-1.38s-.02-1.02-.06-1.36c-.04-.34-.11-.67-.2-1-.2-.59-.52-1.04-.98-1.35-.45-.32-1.01-.48-1.66-.48s-1.2.16-1.66.48c-.45.32-.78.77-.98,1.35-.1.33-.17.66-.21,1s-.06.8-.06,1.36.02,1.03.06,1.38.11.69.21,1.01c.2.59.52,1.04.98,1.35s1.01.48,1.66.48Z"/>
          <path class="cls-3" d="m155.18,313.83c-.16,0-.25-.08-.25-.24v-6.83c0-.94-.21-1.67-.65-2.19-.43-.52-1.09-.78-1.96-.78-.78,0-1.42.26-1.92.77-.5.51-.76,1.21-.76,2.08v6.95c0,.16-.08.24-.24.24h-1.56c-.16,0-.24-.08-.24-.24v-6.83c0-.94-.22-1.67-.65-2.19-.43-.52-1.09-.78-1.96-.78-.8,0-1.44.26-1.94.77s-.74,1.21-.74,2.08v6.95c0,.16-.08.24-.25.24h-1.56c-.16,0-.24-.08-.24-.24v-11.2c0-.16.08-.24.24-.24h1.56c.16,0,.25.08.25.24v1.07h.02c.28-.45.69-.83,1.24-1.13s1.23-.45,2.02-.45,1.48.16,2.06.48c.58.32,1.03.77,1.35,1.35h.02c.41-.57.91-1.01,1.52-1.34.61-.32,1.36-.49,2.26-.49,1.37,0,2.4.4,3.11,1.2.71.8,1.06,1.86,1.06,3.2v7.32c0,.16-.08.24-.24.24h-1.56Z"/>
          <path class="cls-3" d="m165.22,314.1c-1.19,0-2.18-.27-2.99-.82-.8-.55-1.37-1.33-1.69-2.36-.13-.37-.23-.79-.29-1.24-.07-.45-.1-1.02-.1-1.71s.03-1.26.09-1.72c.05-.46.15-.87.28-1.23.33-1.02.89-1.8,1.7-2.34.8-.54,1.77-.8,2.89-.8s2.09.27,2.89.82c.8.55,1.37,1.32,1.7,2.33.06.2.12.4.16.6.04.2.08.44.11.7s.06.56.07.89.02.72.02,1.16c0,.16-.09.25-.27.25h-7.39c-.1,0-.15.05-.15.15,0,.33.02.59.05.8.03.21.08.41.15.61.23.68.59,1.19,1.1,1.52.5.33,1.12.5,1.85.5s1.29-.12,1.78-.37c.49-.24.89-.55,1.22-.93.13-.13.25-.15.36-.05l1,.9c.11.1.12.21.03.34-.47.59-1.1,1.06-1.87,1.44-.77.37-1.67.56-2.69.56Zm2.58-7.12c.1,0,.15-.05.15-.15,0-.54-.06-.97-.17-1.32-.2-.59-.52-1.04-.99-1.35-.46-.32-1.03-.48-1.7-.48s-1.23.16-1.69.48c-.46.32-.79.77-.99,1.35-.11.34-.17.78-.17,1.32,0,.1.05.15.15.15h5.41Z"/>
          <path class="cls-3" d="m179.1,310.22c-.08-.24-.15-.5-.2-.75-.05-.26-.1-.56-.14-.91s-.07-.77-.08-1.26c-.02-.49-.03-1.07-.03-1.76s0-1.27.03-1.76c.01-.49.04-.9.08-1.26s.09-.65.14-.91c.05-.26.11-.51.2-.76.42-1.28,1.12-2.25,2.1-2.9.98-.65,2.17-.98,3.59-.98.73,0,1.39.09,1.97.26.59.17,1.11.4,1.56.71.45.3.85.65,1.17,1.05.32.4.59.83.8,1.28.08.15.06.26-.07.34l-1.46.71c-.15.08-.26.04-.34-.12-.4-.75-.89-1.3-1.46-1.66-.57-.36-1.29-.54-2.17-.54-.94,0-1.71.21-2.31.63-.59.42-1.02,1.03-1.28,1.83-.05.15-.1.33-.15.54-.05.21-.09.47-.11.78-.02.31-.05.69-.06,1.13-.02.45-.02.99-.02,1.62s0,1.18.02,1.62c.02.45.04.83.06,1.14.02.31.06.57.11.78.05.21.1.39.15.54.26.8.69,1.41,1.28,1.83.59.42,1.36.64,2.31.64.85,0,1.58-.2,2.22-.61.64-.41,1.08-1,1.34-1.78.08-.28.15-.63.22-1.05.06-.42.1-.94.1-1.56,0-.1-.05-.15-.15-.15h-3.22c-.16,0-.25-.08-.25-.24v-1.41c0-.16.08-.25.25-.25h5.29c.16,0,.24.08.24.25v1.24c0,.75-.04,1.44-.11,2.09-.07.64-.17,1.16-.3,1.57-.41,1.27-1.1,2.24-2.08,2.92-.99.67-2.17,1.01-3.55,1.01s-2.61-.33-3.59-.98c-.97-.65-1.67-1.62-2.1-2.9Z"/>
          <path class="cls-3" d="m194.54,313.83c-.16,0-.24-.08-.24-.24v-11.2c0-.16.08-.24.24-.24h1.56c.16,0,.25.08.25.24v1.2h.02c.26-.5.65-.91,1.16-1.23.51-.32,1.16-.48,1.94-.48.47,0,.91.08,1.33.23.41.15.77.37,1.06.65.11.11.13.23.05.34l-.9,1.2c-.1.13-.21.15-.34.05-.28-.18-.56-.32-.85-.41s-.61-.15-.95-.15c-.9,0-1.54.31-1.93.94-.39.63-.59,1.45-.59,2.48v6.39c0,.16-.08.24-.25.24h-1.56Z"/>
          <path class="cls-3" d="m208.58,314.1c-1.14,0-2.11-.28-2.92-.83-.8-.55-1.37-1.32-1.69-2.31-.13-.41-.23-.83-.29-1.28-.07-.45-.1-1.01-.1-1.7s.03-1.24.1-1.68c.06-.44.16-.86.29-1.27.32-1.01.89-1.78,1.69-2.33.8-.54,1.78-.82,2.92-.82s2.11.27,2.92.82c.8.55,1.37,1.32,1.69,2.33.13.41.23.83.29,1.27.06.44.1,1,.1,1.68s-.03,1.25-.1,1.7c-.06.45-.16.87-.29,1.28-.32.99-.89,1.76-1.69,2.31-.8.55-1.78.83-2.92.83Zm0-1.9c.65,0,1.2-.16,1.66-.48s.78-.77.98-1.35c.1-.33.17-.66.21-1.01s.06-.81.06-1.38-.02-1.02-.06-1.36c-.04-.34-.11-.67-.21-1-.2-.59-.52-1.04-.98-1.35-.45-.32-1.01-.48-1.66-.48s-1.2.16-1.66.48c-.46.32-.78.77-.98,1.35-.1.33-.17.66-.21,1s-.06.8-.06,1.36.02,1.03.06,1.38.11.69.21,1.01c.2.59.52,1.04.98,1.35.45.32,1.01.48,1.66.48Z"/>
          <path class="cls-3" d="m224.21,313.83c-.16,0-.24-.08-.24-.24v-1.1h-.03c-.31.49-.73.88-1.26,1.17-.53.29-1.17.44-1.94.44-1.29,0-2.28-.4-2.99-1.21-.71-.8-1.06-1.87-1.06-3.21v-7.29c0-.16.08-.24.24-.24h1.56c.16,0,.24.08.24.24v6.8c0,.96.21,1.7.63,2.22.42.52,1.07.78,1.95.78.8,0,1.43-.26,1.91-.78.48-.52.72-1.22.72-2.1v-6.93c0-.16.08-.24.24-.24h1.56c.16,0,.25.08.25.24v11.2c0,.16-.08.24-.25.24h-1.56Z"/>
          <path class="cls-3" d="m230.26,318.22c-.16,0-.24-.08-.24-.24v-15.59c0-.16.08-.24.24-.24h1.56c.16,0,.25.08.25.24v1.1h.02c.28-.47.68-.86,1.21-1.16.53-.3,1.23-.45,2.11-.45,1.02,0,1.88.24,2.56.71.68.47,1.17,1.17,1.46,2.1.16.47.27.96.33,1.45.05.5.08,1.11.08,1.84s-.03,1.35-.08,1.86c-.06.5-.17.99-.33,1.46-.29.93-.78,1.63-1.46,2.1-.68.47-1.54.71-2.56.71-.88,0-1.58-.15-2.11-.46-.53-.31-.93-.7-1.21-1.17h-.02v5.51c0,.16-.08.24-.25.24h-1.56Zm4.66-6.02c1.3,0,2.15-.59,2.56-1.78.1-.31.17-.66.21-1.05.04-.39.06-.85.06-1.39s-.02-.97-.06-1.36-.11-.75-.21-1.07c-.41-1.17-1.26-1.76-2.56-1.76s-2.2.59-2.59,1.76c-.1.29-.17.63-.21,1-.04.37-.06.85-.06,1.44s.02,1.07.06,1.45c.04.38.11.71.21.99.39,1.19,1.25,1.78,2.59,1.78Z"/>
        </g>
        <g>
          <rect class="cls-3" x="12.17" y="270.39" width="2.2" height="2.32" rx=".25" ry=".25"/>
          <path class="cls-3" d="m9.37,270.39h1.7c.14,0,.25.11.25.25v1.82c0,.14-.11.25-.25.25h-1.7c-.14,0-.25-.11-.25-.25v-1.82c0-.14.11-.25.25-.25Z"/>
          <path class="cls-3" d="m21.99,287.73h1.7c.14,0,.25.11.25.25v1.83c0,.14-.11.25-.25.25h-1.7c-.14,0-.25-.11-.25-.25v-1.82c0-.14.11-.25.25-.25Z"/>
          <path class="cls-3" d="m25.26,284.64c.45-.51.67-1.3.67-2.39v-6.82c0-.17-.08-.25-.25-.25h-1.6c-.17,0-.25.08-.25.25v6.7c0,.5-.1.85-.29,1.04-.19.19-.5.29-.91.29h-6.07v-3.27c0-1.91-.42-3.3-1.27-4.16-.85-.86-2.02-1.29-3.5-1.29-.65,0-1.27.1-1.85.31-.58.21-1.09.53-1.53.97-.43.44-.77,1.01-1.02,1.7-.25.69-.38,1.51-.38,2.46s.11,1.76.33,2.43c.22.66.53,1.2.95,1.61.42.41.92.71,1.51.9.59.19,1.25.29,1.99.29h2.67v1.45c0,.42-.2.77-.59,1.07-.39.3-1.09.45-2.09.45h-5.52c-.55,0-1.07-.06-1.56-.19-.49-.12-.93-.33-1.31-.61-.38-.28-.69-.66-.91-1.14-.23-.47-.34-1.05-.34-1.74,0-.75.14-1.47.41-2.15.28-.68.56-1.26.86-1.73.08-.13.06-.24-.08-.32l-1.37-.75c-.17-.1-.28-.09-.35.03-.43.61-.81,1.38-1.14,2.29-.33.91-.49,1.85-.49,2.84,0,1.7.51,3.04,1.52,4.01,1.02.97,2.5,1.46,4.45,1.46h5.85c.87,0,1.6-.1,2.21-.3.61-.2,1.1-.46,1.47-.79.37-.33.65-.7.81-1.12.17-.43.25-.86.25-1.29v-1.48h6.45c1.05,0,1.8-.25,2.25-.76Zm-10.79-1.19h-2.52c-.93,0-1.64-.25-2.11-.74-.47-.49-.71-1.34-.71-2.54,0-1.1.23-1.96.7-2.57.47-.61,1.12-.92,1.97-.92.93,0,1.61.31,2.04.92.42.62.64,1.47.64,2.57v3.27Z"/>
          <path class="cls-3" d="m25.04,287.73h1.7c.14,0,.25.11.25.25v1.83c0,.14-.11.25-.25.25h-1.7c-.14,0-.25-.11-.25-.25v-1.82c0-.14.11-.25.25-.25Z"/>
          <rect class="cls-3" x="67.86" y="270.39" width="2.2" height="2.32" rx=".25" ry=".25"/>
          <path class="cls-3" d="m71.16,270.39h1.7c.14,0,.25.11.25.25v1.82c0,.14-.11.25-.25.25h-1.7c-.14,0-.25-.11-.25-.25v-1.82c0-.14.11-.25.25-.25Z"/>
          <path class="cls-3" d="m81.53,268.41h-1.6c-.17,0-.25.08-.25.25v13.47c0,.5-.1.85-.29,1.04-.19.19-.5.29-.91.29h-4.32s0,0-.01,0c0,0,0,0-.01,0h-.3c-.68,0-1.23-.14-1.64-.42-.41-.28-.61-.71-.61-1.28v-6.32c0-.17-.08-.25-.25-.25h-1.6c-.17,0-.25.08-.25.25v6.7c0,.5-.1.85-.29,1.04-.19.19-.5.29-.91.29h-1.7s-.05,0-.08.01c-.03,0-.06-.01-.09-.01h-2.75s0,0-.01,0c0,0,0,0-.01,0h-.28c-.68,0-1.23-.14-1.64-.42-.41-.28-.61-.71-.61-1.28v-6.32c0-.17-.08-.25-.25-.25h-1.6c-.17,0-.25.08-.25.25v6.7c0,.5-.1.85-.29,1.04-.19.19-.5.29-.91.29h-.58c-.67,0-1.21-.13-1.62-.4-.42-.26-.62-.66-.62-1.2v-4.27c0-.17-.08-.25-.25-.25h-1.6c-.17,0-.25.08-.25.25v4.55c0,.5-.1.85-.29,1.04-.19.19-.5.29-.91.29h-.63c-.67,0-1.2-.14-1.6-.42-.4-.28-.6-.71-.6-1.28v-4.17c0-.17-.08-.25-.25-.25h-1.6c-.17,0-.25.08-.25.25v4.55c0,.5-.1.85-.29,1.04-.19.19-.5.29-.91.29h-5.07s-.02,0-.03,0c0,0-.01,0-.02,0h-1.72v-3.27c0-1.91-.42-3.3-1.25-4.16-.83-.86-1.99-1.29-3.47-1.29-.65,0-1.27.11-1.85.34-.58.22-1.09.57-1.54,1.02-.44.46-.79,1.04-1.05,1.75-.26.71-.39,1.54-.39,2.49s.11,1.75.33,2.4c.22.65.53,1.17.95,1.56.42.39.92.67,1.51.85.59.17,1.25.26,1.99.26h2.67v.65c0,.46-.06.85-.18,1.16-.12.31-.28.55-.49.72-.21.18-.45.3-.74.38-.28.07-.59.11-.92.11h-3c-.17,0-.25.08-.25.25v1.45c0,.17.08.25.25.25h3.1c.65,0,1.24-.08,1.77-.25.53-.17.99-.42,1.36-.77.37-.35.67-.8.87-1.35.21-.55.31-1.22.31-2v-.6h1.72s.02,0,.03,0c0,0,.01,0,.02,0h5.45c1.32,0,2.18-.43,2.6-1.3.22.43.52.76.92.97.4.22.87.32,1.4.32h1.2c1.32,0,2.18-.43,2.6-1.3.22.43.53.76.92.97.4.22.87.32,1.4.32h1.2c1.32,0,2.18-.43,2.6-1.3.22.43.53.76.92.97.4.22.87.32,1.4.32h.52s0,0,.01,0c0,0,0,0,.01,0h2.75s.05,0,.08,0c.03,0,.06,0,.09,0h2.07c1.32,0,2.18-.43,2.6-1.3.22.43.52.76.92.97.4.22.86.32,1.4.32h.55s0,0,.01,0c0,0,0,0,.01,0h4.7c1.05,0,1.8-.25,2.25-.76.45-.51.68-1.3.68-2.39v-13.59c0-.16-.08-.25-.25-.25Zm-44.9,15.04h-2.52c-.93,0-1.64-.22-2.11-.67-.48-.45-.71-1.27-.71-2.45,0-1.1.25-1.98.74-2.65.49-.67,1.15-1,1.99-1,.93,0,1.6.31,2.01.92.41.62.61,1.47.61,2.57v3.27Z"/>
          <path class="cls-3" d="m85.53,268.41h1.6c.14,0,.25.11.25.25v16.49c0,.14-.11.25-.25.25h-1.6c-.14,0-.25-.11-.25-.25v-16.49c0-.14.11-.25.25-.25Z"/>
          <path class="cls-3" d="m107.77,268.41h-1.6c-.17,0-.25.08-.25.25v16.22c0,1.23-.34,2.12-1.02,2.67-.68.55-1.56.82-2.62.82-.43,0-.87-.06-1.32-.18-.45-.12-.87-.31-1.25-.59-.38-.27-.7-.65-.94-1.12-.24-.47-.36-1.07-.36-1.79s.14-1.47.41-2.15c.28-.68.56-1.26.86-1.73.08-.13.06-.24-.08-.32l-1.37-.75c-.17-.1-.28-.09-.35.03-.43.61-.81,1.38-1.14,2.29-.33.91-.49,1.85-.49,2.84,0,.88.14,1.66.42,2.34.28.67.68,1.24,1.19,1.71.51.47,1.12.82,1.85,1.06.73.24,1.54.36,2.44.36,1.9,0,3.35-.48,4.36-1.45,1.01-.97,1.51-2.31,1.51-4.02v-16.24c0-.16-.08-.25-.25-.25Z"/>
          <path class="cls-3" d="m112.81,270.39h1.7c.14,0,.25.11.25.25v1.82c0,.14-.11.25-.25.25h-1.7c-.14,0-.25-.11-.25-.25v-1.82c0-.14.11-.25.25-.25Z"/>
          <path class="cls-3" d="m123.16,270.39h1.7c.14,0,.25.11.25.25v1.82c0,.14-.11.25-.25.25h-1.7c-.14,0-.25-.11-.25-.25v-1.82c0-.14.11-.25.25-.25Z"/>
          <path class="cls-3" d="m137.73,274.73c-1.48,0-2.65.43-3.5,1.29-.85.86-1.27,2.24-1.27,4.16v.51c0,.16,0,.32.02.49,0,.43-.05.8-.14,1.09-.09.29-.21.52-.36.7-.15.17-.32.3-.5.37-.18.07-.37.11-.55.11h-4.12c-.68,0-1.23-.14-1.64-.42s-.61-.71-.61-1.28v-6.32c0-.17-.08-.25-.25-.25h-1.6c-.17,0-.25.08-.25.25v6.7c0,.5-.1.85-.29,1.04-.19.19-.5.29-.91.29h-1.57s-.05,0-.08.01c-.03,0-.06-.01-.09-.01h-2.75s0,0-.01,0c0,0,0,0-.01,0h-.28c-.68,0-1.23-.14-1.64-.42-.41-.28-.61-.71-.61-1.28v-6.32c0-.17-.08-.25-.25-.25h-1.6c-.17,0-.25.08-.25.25v10.87c0,1.42-.67,2.13-2.02,2.13h-.57c-.17,0-.25.08-.25.25v1.45c0,.17.08.25.25.25h.67c1.32,0,2.31-.35,3-1.05.68-.7,1.02-1.72,1.02-3.07v-1.65c.47.53,1.13.8,2,.8h.53s0,0,.01,0c0,0,0,0,.01,0h2.75s.05,0,.08,0c.03,0,.06,0,.09,0h1.95c1.32,0,2.18-.43,2.6-1.3.22.43.52.76.92.97.4.22.87.32,1.4.32h4.2c.47,0,.97-.07,1.52-.21.55-.14,1-.48,1.35-1.01.42.48.92.84,1.52,1.06.6.22,1.29.34,2.08.34.73,0,1.39-.1,1.98-.31.59-.21,1.09-.53,1.5-.96.41-.43.72-.99.95-1.68.22-.68.34-1.5.34-2.45,0-1.91-.43-3.3-1.27-4.16-.85-.86-2.02-1.29-3.5-1.29Zm2.03,8.07c-.42.55-1.1.82-2.03.82s-1.61-.27-2.04-.82c-.42-.55-.64-1.42-.64-2.62,0-1.1.21-1.96.64-2.57.42-.61,1.1-.92,2.04-.92s1.61.31,2.03.92c.43.62.64,1.47.64,2.57,0,1.2-.21,2.08-.64,2.62Z"/>
          <path class="cls-3" d="m156.27,269.39h1.7c.14,0,.25.11.25.25v1.83c0,.14-.11.25-.25.25h-1.7c-.14,0-.25-.11-.25-.25v-1.83c0-.14.11-.25.25-.25Z"/>
          <rect class="cls-3" x="152.97" y="269.39" width="2.2" height="2.33" rx=".25" ry=".25"/>
          <path class="cls-3" d="m176.68,283.46h-5.42c-.15-.05-.36-.15-.63-.29-.26-.14-.53-.36-.79-.64-.26-.28-.49-.64-.69-1.07-.2-.43-.3-.96-.3-1.57,0-.92.25-1.68.75-2.29.5-.61,1.27-.91,2.3-.91,1.13,0,2.08.43,2.82,1.3.1.12.22.12.35.02l1.1-.9c.13-.1.16-.22.08-.35-.43-.63-1.01-1.13-1.73-1.49-.71-.36-1.57-.54-2.55-.54-1.08,0-1.97.17-2.66.51-.69.34-1.24.77-1.64,1.29-.4.52-.67,1.08-.82,1.69-.15.61-.22,1.17-.22,1.69,0,.82.13,1.52.4,2.1.27.58.59,1.06.97,1.45h-5.6s0,0-.01,0c0,0,0,0-.01,0h-1.1c-.42,0-.72-.1-.91-.29-.19-.19-.29-.54-.29-1.04v-8.47c0-.17-.08-.25-.25-.25h-1.6c-.17,0-.25.08-.25.25v1.07h-2.45c-.61,0-1.21.09-1.78.26-.58.17-1.08.46-1.51.85-.43.39-.78.9-1.05,1.54-.27.63-.4,1.42-.4,2.35,0,.78.12,1.46.35,2.03.23.57.55,1.05.96,1.43.41.37.89.65,1.45.84.56.18,1.16.28,1.81.28.55,0,1.06-.08,1.53-.23.46-.15.87-.37,1.2-.67.15.72.45,1.23.91,1.54.46.31,1.09.46,1.91.46h1.47s0,0,.01,0c0,0,0,0,0,0h14.27c.17,0,.25-.08.25-.25v-1.45c0-.17-.08-.25-.25-.25Zm-18.69-4.27c0,1-.2,1.78-.59,2.34-.39.56-1.06.84-2.01.84-.8,0-1.42-.22-1.85-.66-.43-.44-.65-1.1-.65-1.96,0-1.15.25-1.94.74-2.39.49-.44,1.13-.66,1.91-.66h2.45v2.5Z"/>
          <rect class="cls-3" x="215.91" y="287.68" width="2.2" height="2.32" rx=".25" ry=".25"/>
          <path class="cls-3" d="m238.57,276.02c-.85-.86-2.02-1.29-3.5-1.29s-2.65.43-3.5,1.29c-.85.86-1.27,2.24-1.27,4.16v.51c0,.16,0,.32.02.49,0,.43-.05.8-.14,1.09-.09.29-.21.52-.36.7-.15.17-.32.3-.5.37-.18.07-.37.11-.55.11h-4s0,0-.01,0c0,0,0,0-.01,0h-.28c-.65,0-1.18-.13-1.59-.39-.41-.26-.63-.65-.66-1.16,0-.13,0-.27.01-.4,0-.13.01-.27.01-.42,0-.82-.08-1.61-.25-2.37-.17-.77-.46-1.44-.89-2.03-.42-.58-1-1.05-1.74-1.41-.73-.36-1.67-.54-2.82-.54-1,0-1.84.19-2.54.58-.69.38-1.27.87-1.74,1.45-.1.12-.07.23.08.35l1.1.9c.13.1.25.09.35-.02.36-.4.79-.72,1.26-.95.48-.23,1-.35,1.56-.35.65,0,1.19.1,1.62.31.43.21.78.51,1.04.9.26.39.45.86.56,1.4.12.54.18,1.14.18,1.79,0,.45-.03.83-.08,1.14-.05.31-.15.56-.3.74-.15.18-.37.31-.65.39-.28.07-.66.11-1.12.11h-10.57c-.37,0-.71-.15-1.04-.46-.33-.31-.5-.89-.51-1.74.02-.16.03-.34.04-.52,0-.18.01-.37.01-.55,0-1.91-.43-3.3-1.27-4.16-.85-.86-2.02-1.29-3.5-1.29s-2.65.43-3.5,1.29c-.85.86-1.27,2.24-1.27,4.16v.51c0,.16,0,.32.02.49,0,.43-.05.8-.14,1.09-.09.29-.21.52-.36.7-.15.17-.32.3-.5.37-.18.07-.37.11-.55.11h-4s-.02,0-.03,0c0,0-.01,0-.02,0h-1.73v-3.27c0-1.91-.41-3.3-1.25-4.16-.83-.86-1.99-1.29-3.47-1.29-.65,0-1.27.11-1.85.34-.58.22-1.1.57-1.54,1.02-.44.46-.79,1.04-1.05,1.75-.26.71-.39,1.54-.39,2.49s.11,1.75.32,2.4c.22.65.53,1.17.95,1.56.41.39.92.67,1.51.85.59.17,1.25.26,1.99.26h2.67v.65c0,.46-.06.85-.18,1.16-.12.31-.28.55-.49.72-.21.18-.46.3-.74.38-.28.07-.59.11-.92.11h-3c-.17,0-.25.08-.25.25v1.45c0,.17.08.25.25.25h3.1c.65,0,1.24-.08,1.78-.25.53-.17.99-.42,1.36-.77.38-.35.67-.8.87-1.35.21-.55.31-1.22.31-2v-.6h1.73s.02,0,.03,0c0,0,.01,0,.02,0h3.82c.47,0,.97-.07,1.53-.21.55-.14,1-.48,1.35-1.01.41.48.92.84,1.52,1.06.6.22,1.29.34,2.08.34s1.45-.11,2.05-.32c.6-.22,1.11-.56,1.52-1.05.17.27.37.48.6.64.23.16.48.28.74.36.26.08.52.14.79.16.26.03.51.04.75.04h11.17c.77,0,1.4-.11,1.91-.32.51-.22.9-.59,1.19-1.12.18.48.5.85.95,1.09.45.24.96.36,1.52.36h.53s0,0,.01,0c0,0,0,0,0,0h3.82c.47,0,.97-.07,1.53-.21.55-.14,1-.48,1.35-1.01.41.48.92.84,1.52,1.06.6.22,1.29.34,2.08.34.73,0,1.39-.1,1.98-.31.59-.21,1.09-.53,1.5-.96.41-.43.72-.99.95-1.68.22-.68.34-1.5.34-2.45,0-1.91-.43-3.3-1.27-4.16Zm-51.7,7.43h-2.53c-.93,0-1.63-.22-2.11-.67-.47-.45-.71-1.27-.71-2.45,0-1.1.25-1.98.74-2.65.49-.67,1.15-1,1.99-1,.93,0,1.6.31,2.01.92.41.62.61,1.47.61,2.57v3.27Zm16.2-.65c-.42.55-1.1.82-2.03.82s-1.61-.27-2.04-.82c-.42-.55-.64-1.42-.64-2.62,0-1.1.21-1.96.64-2.57.42-.61,1.1-.92,2.04-.92s1.61.31,2.03.92c.43.62.64,1.47.64,2.57,0,1.2-.21,2.08-.64,2.62Zm34.03,0c-.42.55-1.1.82-2.03.82s-1.61-.27-2.04-.82c-.42-.55-.64-1.42-.64-2.62,0-1.1.21-1.96.64-2.57.42-.61,1.1-.92,2.04-.92s1.61.31,2.03.92c.43.62.64,1.47.64,2.57,0,1.2-.21,2.08-.64,2.62Z"/>
        </g>
      </g>
    </g>
  </g>
</svg>